<svg width="57" height="47" viewBox="0 0 57 47" fill="none" xmlns="http://www.w3.org/2000/svg">
<path d="M18.1666 41.7738V27.9343H38.8333V41.7738H46.5833V4.86842H10.4166V41.7738H18.1666ZM23.3333 41.7738H33.6666V32.5474H23.3333V41.7738ZM51.7499 41.7738H56.9166V46.3869H0.083252V41.7738H5.24992V2.56183C5.24992 1.95009 5.52209 1.3634 6.00656 0.930832C6.49103 0.498263 7.14811 0.255249 7.83325 0.255249H49.1666C49.8517 0.255249 50.5088 0.498263 50.9933 0.930832C51.4777 1.3634 51.7499 1.95009 51.7499 2.56183V41.7738ZM25.9166 14.0948V9.48159H31.0833V14.0948H36.2499V18.7079H31.0833V23.3211H25.9166V18.7079H20.7499V14.0948H25.9166Z" fill="white"/>
</svg>
