<svg width="53" height="53" viewBox="0 0 53 53" fill="none" xmlns="http://www.w3.org/2000/svg">
<path d="M4.83643 43.7871V26.654C4.83643 25.518 5.29206 24.4285 6.10309 23.6253C6.91412 22.822 8.01411 22.3707 9.16108 22.3707H43.7583C44.9053 22.3707 46.0052 22.822 46.8163 23.6253C47.6273 24.4285 48.0829 25.518 48.0829 26.654V43.7871" stroke="#352089" stroke-width="2" stroke-linecap="round" stroke-linejoin="round"/>
<path d="M9.16113 22.3707V13.8042C9.16113 12.6682 9.61676 11.5787 10.4278 10.7754C11.2388 9.97215 12.3388 9.52087 13.4858 9.52087H39.4337C40.5807 9.52087 41.6807 9.97215 42.4917 10.7754C43.3027 11.5787 43.7584 12.6682 43.7584 13.8042V22.3707" stroke="#352089" stroke-width="2" stroke-linecap="round" stroke-linejoin="round"/>
<path d="M26.4595 9.52087V22.3707" stroke="#352089" stroke-width="2" stroke-linecap="round" stroke-linejoin="round"/>
<path d="M4.83643 39.5039H48.0829" stroke="#352089" stroke-width="2" stroke-linecap="round" stroke-linejoin="round"/>
</svg>
