<svg width="36" height="36" viewBox="0 0 36 36" fill="none" xmlns="http://www.w3.org/2000/svg">
<path fill-rule="evenodd" clip-rule="evenodd" d="M26.1225 21.573C25.6755 21.3495 23.484 20.2725 23.076 20.1225C22.668 19.974 22.371 19.9005 22.0725 20.3475C21.7755 20.7915 20.922 21.7965 20.6625 22.0935C20.4015 22.392 20.142 22.428 19.6965 22.206C19.251 21.981 17.814 21.5115 16.1115 19.9935C14.787 18.8115 13.8915 17.352 13.632 16.905C13.3725 16.4595 13.6035 16.218 13.827 15.996C14.028 15.7965 14.2725 15.4755 14.496 15.216C14.7195 14.955 14.793 14.769 14.9415 14.4705C15.0915 14.1735 15.0165 13.914 14.904 13.6905C14.793 13.467 13.902 11.2725 13.53 10.38C13.1685 9.5115 12.801 9.63 12.528 9.615C12.267 9.603 11.97 9.6 11.673 9.6C11.376 9.6 10.893 9.711 10.485 10.158C10.0755 10.6035 8.925 11.682 8.925 13.8765C8.925 16.0695 10.521 18.189 10.7445 18.4875C10.968 18.7845 13.887 23.2875 18.3585 25.218C19.4235 25.677 20.253 25.9515 20.8995 26.1555C21.9675 26.496 22.9395 26.448 23.7075 26.3325C24.5625 26.205 26.3445 25.254 26.7165 24.213C27.087 23.172 27.087 22.2795 26.976 22.0935C26.865 21.9075 26.568 21.7965 26.121 21.573H26.1225ZM17.9895 32.6775H17.9835C15.3276 32.678 12.7206 31.964 10.4355 30.6105L9.8955 30.2895L4.2825 31.7625L5.781 26.2905L5.4285 25.7295C3.94371 23.366 3.15794 20.6307 3.162 17.8395C3.165 9.6645 9.816 3.0135 17.9955 3.0135C21.9555 3.0135 25.6785 4.5585 28.4775 7.3605C29.8581 8.73537 30.9523 10.3703 31.6969 12.1708C32.4415 13.9713 32.8217 15.9016 32.8155 17.85C32.8125 26.025 26.1615 32.6775 17.9895 32.6775ZM30.6075 5.232C28.9548 3.56839 26.9883 2.24931 24.8221 1.3512C22.6559 0.453096 20.333 -0.00617541 17.988 4.31166e-07C8.157 4.31166e-07 0.153 8.0025 0.15 17.838C0.1485 20.982 0.969 24.051 2.5305 26.7555L0 36L9.456 33.519C12.0718 34.9442 15.0031 35.6909 17.982 35.691H17.9895C27.8205 35.691 35.8245 27.6885 35.8275 17.8515C35.8348 15.5074 35.3771 13.1852 34.4811 11.0191C33.5851 8.85295 32.2685 6.88601 30.6075 5.232Z" fill="white"/>
</svg>
